<?xml version="1.0" standalone="no"?>
<!DOCTYPE svg PUBLIC "-//W3C//DTD SVG 20010904//EN"
 "http://www.w3.org/TR/2001/REC-SVG-20010904/DTD/svg10.dtd">
<svg version="1.0" xmlns="http://www.w3.org/2000/svg"
 width="512.000000pt" height="512.000000pt" viewBox="0 0 512.000000 512.000000"
 preserveAspectRatio="xMidYMid meet">
<metadata>
Created by potrace 1.11, written by Peter Selinger 2001-2013
</metadata>
<g transform="translate(0.000000,512.000000) scale(0.100000,-0.100000)"
fill="#000000" stroke="none">
<path d="M225 4876 c-67 -21 -100 -43 -148 -96 -84 -93 -77 112 -77 -2220 0
-1880 2 -2081 16 -2124 22 -64 100 -147 166 -177 l53 -24 2325 0 2325 0 53 24
c66 30 144 113 166 177 14 43 16 244 16 2124 0 1880 -2 2081 -16 2124 -22 64
-100 147 -166 177 l-53 24 -2310 2 c-1843 1 -2318 -1 -2350 -11z m3436 -434
c28 -31 29 -35 29 -138 l0 -106 -35 -35 -35 -35 -100 4 c-93 3 -101 5 -127 31
-26 26 -28 34 -31 125 -4 113 5 144 50 172 28 18 46 21 126 18 92 -3 94 -4
123 -36z m530 0 c28 -31 29 -35 29 -137 0 -102 -1 -106 -29 -137 l-29 -33
-107 0 -107 0 -29 33 c-28 31 -29 36 -29 136 0 90 3 107 21 130 31 40 53 46
157 43 92 -2 94 -3 123 -35z m507 18 c45 -28 54 -59 50 -172 -3 -91 -5 -99
-31 -125 -26 -26 -34 -28 -127 -31 l-100 -4 -35 35 -35 35 0 105 c0 91 3 108
21 131 30 38 52 45 144 45 63 1 87 -3 113 -19z m52 -2265 l0 -1585 -2190 0
-2190 0 0 1585 0 1585 2190 0 2190 0 0 -1585z"/>
<path d="M2750 3210 c-19 -12 -42 -32 -52 -44 -27 -38 -572 -1735 -572 -1782
1 -51 29 -102 74 -131 62 -43 177 -24 219 36 29 41 575 1738 575 1786 -1 87
-61 147 -153 152 -43 3 -64 -1 -91 -17z"/>
<path d="M1955 2773 c-11 -3 -213 -95 -450 -205 -297 -138 -438 -208 -457
-228 -65 -70 -56 -195 19 -248 16 -11 219 -108 453 -217 473 -220 482 -223
558 -173 96 64 96 212 -1 273 -18 12 -138 70 -267 129 -129 60 -241 112 -248
115 -7 4 102 60 253 130 322 150 346 170 333 286 -6 50 -38 99 -77 119 -32 17
-89 26 -116 19z"/>
<path d="M3077 2766 c-48 -17 -71 -38 -91 -81 -31 -66 -17 -143 36 -193 14
-12 141 -77 284 -143 142 -67 260 -122 261 -123 1 -1 -50 -26 -115 -56 -64
-30 -189 -88 -277 -131 -148 -71 -162 -80 -184 -119 -44 -79 -15 -187 62 -227
71 -37 91 -31 547 182 234 109 437 206 453 217 75 53 84 177 19 248 -30 33
-862 424 -923 434 -19 3 -51 0 -72 -8z"/>
</g>
</svg>
